<svg xmlns="http://www.w3.org/2000/svg"
    xmlns:xlink="http://www.w3.org/1999/xlink" aria-hidden="true" role="img" preserveAspectRatio="xMidYMid meet" width="24" height="24" fill="currentColor" viewBox="0 0 24 24" transform="">    <!--Boxicons v3.0.6 https://boxicons.com | License  https://docs.boxicons.com/free-->
    <path d="m12,2C6.49,2,2,6.49,2,12c0,2.12.68,4.19,1.93,5.9l-1.75,2.53c-.21.31-.24.7-.06,1.03.17.33.51.54.89.54h9c5.51,0,10-4.49,10-10S17.51,2,12,2Zm-3.5,6c.83,0,1.5.67,1.5,1.5s-.67,1.5-1.5,1.5-1.5-.67-1.5-1.5.67-1.5,1.5-1.5Zm-1.5,7l2.5-3,1.5,1.5,3-3.5,3,5H7Z"></path>
</svg>